<svg width="32" height="37" fill="none" xmlns="http://www.w3.org/2000/svg">
    <path d="M0 9.25v18.5L15.6 37l15.6-9.25V9.25L15.6 0 0 9.25Z" fill="#FBC5B4"/>
    <path d="M15.161 18.337c2.41 0 4.37-2.557 4.37-4.967 0-2.41-1.96-4.37-4.37-4.37s-4.37 1.96-4.37 4.37 1.96 4.967 4.37 4.967ZM18.442 18.382a5.018 5.018 0 0 1-3.05 1.03h-.46a5.018 5.018 0 0 1-3.051-1.03A5.816 5.816 0 0 0 7 24.122C7 25.712 10.654 27 15.162 27c4.507 0 8.161-1.289 8.161-2.878a5.816 5.816 0 0 0-4.881-5.74Z" fill="#090940"/>
</svg>