<svg width="32" height="37" fill="none" xmlns="http://www.w3.org/2000/svg">
    <path d="M0 9.25v18.5L15.6 37l15.6-9.25V9.25L15.6 0 0 9.25Z" fill="#FBC5B4"/>
    <path d="M25 17h-1.1c-.5-3.6-3.3-6.5-6.9-6.9V9c0-.6-.4-1-1-1s-1 .4-1 1v1.1c-3.6.4-6.5 3.3-6.9 6.9H7c-.6 0-1 .4-1 1s.4 1 1 1h1.1c.5 3.6 3.3 6.5 6.9 6.9V27c0 .6.4 1 1 1s1-.4 1-1v-1.1c3.6-.5 6.5-3.3 6.9-6.9H25c.6 0 1-.4 1-1s-.4-1-1-1Zm-3.1 0h-3.1c-.3-.8-1-1.5-1.8-1.8v-3.1c2.5.4 4.5 2.4 4.9 4.9ZM16 19c-.6 0-1-.4-1-1s.4-1 1-1 1 .4 1 1-.4 1-1 1Zm-1-6.9v3.1c-.8.3-1.5 1-1.8 1.8h-3.1c.4-2.5 2.4-4.5 4.9-4.9ZM10.1 19h3.1c.3.8 1 1.5 1.8 1.8v3.1c-2.5-.4-4.5-2.4-4.9-4.9Zm6.9 4.9v-3.1c.8-.3 1.5-1 1.8-1.8h3.1c-.4 2.5-2.4 4.5-4.9 4.9Z" fill="#090940"/>
</svg>