<svg width="32" height="32" fill="none" xmlns="http://www.w3.org/2000/svg">
    <path d="M16.01 2.882c4.277 0 4.783.019 6.466.094 1.563.068 2.407.33 2.97.55a4.95 4.95 0 0 1 1.839 1.194 4.922 4.922 0 0 1 1.194 1.838c.22.562.482 1.412.55 2.969.076 1.688.094 2.194.094 6.464 0 4.276-.018 4.782-.094 6.463-.068 1.563-.33 2.407-.55 2.97a4.95 4.95 0 0 1-1.194 1.838 4.925 4.925 0 0 1-1.839 1.194c-.563.218-1.413.48-2.97.55-1.689.075-2.195.093-6.467.093-4.277 0-4.784-.018-6.466-.093-1.563-.07-2.408-.332-2.97-.55a4.953 4.953 0 0 1-1.839-1.194 4.922 4.922 0 0 1-1.194-1.838c-.22-.563-.482-1.413-.55-2.97-.076-1.687-.095-2.194-.095-6.463 0-4.276.02-4.783.094-6.464.069-1.563.332-2.407.55-2.97A4.949 4.949 0 0 1 4.735 4.72a4.924 4.924 0 0 1 1.839-1.194c.562-.22 1.413-.482 2.97-.55 1.682-.075 2.189-.094 6.466-.094Zm0-2.882c-4.347 0-4.891.019-6.598.094-1.701.075-2.87.35-3.884.744-1.057.412-1.95.956-2.839 1.85C1.795 3.576 1.251 4.47.838 5.52.444 6.539.168 7.702.094 9.402.019 11.115 0 11.659 0 16.003c0 4.345.019 4.889.094 6.595.075 1.7.35 2.87.744 3.882.413 1.057.957 1.95 1.851 2.838a7.825 7.825 0 0 0 2.833 1.844c1.02.394 2.183.67 3.884.744 1.707.075 2.25.094 6.597.094 4.346 0 4.89-.019 6.598-.094 1.7-.075 2.87-.35 3.883-.744a7.825 7.825 0 0 0 2.833-1.844 7.822 7.822 0 0 0 1.845-2.832c.394-1.018.67-2.181.744-3.882.075-1.706.094-2.25.094-6.595 0-4.344-.019-4.888-.094-6.595-.075-1.7-.35-2.869-.744-3.882a7.495 7.495 0 0 0-1.832-2.844A7.826 7.826 0 0 0 26.497.844C25.477.45 24.314.175 22.613.1 20.9.019 20.356 0 16.01 0Z" fill="#000"/>
    <path d="M16.01 7.783c-4.54 0-8.224 3.682-8.224 8.22s3.683 8.22 8.223 8.22c4.54 0 8.224-3.681 8.224-8.22 0-4.538-3.684-8.22-8.224-8.22Zm0 13.552a5.334 5.334 0 0 1-5.335-5.332 5.334 5.334 0 0 1 10.669 0 5.334 5.334 0 0 1-5.335 5.332Z" fill="#090940"/>
    <path d="M26.478 7.458a1.92 1.92 0 1 1-1.92-1.92c1.057 0 1.92.863 1.92 1.92Z" fill="#000"/>
</svg>