<?xml version="1.0" encoding="UTF-8"?>
<svg id="Layer_1" xmlns="http://www.w3.org/2000/svg" version="1.1" viewBox="0 0 100 75">
  <!-- Generator: Adobe Illustrator 29.4.0, SVG Export Plug-In . SVG Version: 2.1.0 Build 152)  -->
  <defs>
    <style>
      .st0 {
        fill: none;
      }

      .st1 {
        fill: #225;
      }
    </style>
  </defs>
  <rect class="st0" width="100" height="75"/>
  <g>
    <path class="st1" d="M6.94,279.38c-.31-.19-1.52-.18-1.86.03-.47.29-1.03,4.51-2.08,3.41-.39-.41-.85-5.98-3.26-6.02-.5-.07-.71.19-.99.53-1.02,1.26-2.01,12.27-1.78,14.25.22,1.84,1.6,2.62,2.41.86.94-2.04.3-5.84,1.11-8.12l3.25,7.48c.5.67,1.48.79,2.01.01-.45-1.93,2.16-11.83,1.18-12.43Z"/>
    <path class="st1" d="M19.97,245.69c-.24-.84-1.43-1.01-2.16-.77-.53.18-.71.68-.85,1.16-1.51,5.36-3.12,10.77-4.94,16.03-.83,2.39-4.14,9.16-4.07,10.96.03.77.13,1.29.8,1.75,1.25.26,2.55-3.11,2.98-4.01,1.21-2.57,8.59-23.85,8.23-25.13Z"/>
    <path class="st1" d="M-1.5,264.58c.28-.94-2.22-2.53-1.28-6.26.77-3.07,4.06-1.65,3.81-4.2-.22-2.27-2.83-.54-3.03-.76.44-1.29.32-5.18,1.12-5.87.46-.39,2.14-.39,2.34-.66,1.83-2.6-4.52-3.68-5.24-1-.84,3.1-2.22,12.09-2.25,15.25-.05,4.54,3.95,5.43,4.53,3.5Z"/>
    <path class="st1" d="M4.5,260.35c.07.07,1.35.05,1.69-.06,1.77-.6,2.08-10.08,2.92-12.06.52-1.23,2.19-1.08,2.65-1.85.26-.43.4-1.84.24-2-.4-.4-6.7,1.18-6.95,1.54-.57.81.99,2.76.98,4.16,0,1.68-2.43,9.4-1.53,10.27Z"/>
    <path class="st1" d="M-17,276.33c-3.38-.91-3.86,3.72-6.26,5.48-1.49.24-.36-1.72-.79-2.44-.22-.37-2.19-.37-2.41,0-.22.38-.08,4.92-.05,5.94.02.5-.04,1.01,0,1.5l-1.93,9.13c3.24,3.94,3.43-1.81,3.93-4.14.14-.64.23-2.45.99-2.49,2.37,10.12,5.71.86,1.01-3,.05-.15.05-.89,0-1,1.31-.92,6.6-7.92,5.5-8.98Z"/>
    <path class="st1" d="M18.5,263.84c1.27.23,1.06-.02,1.65-.61,2.53-2.56,5.11-6.56,7.59-9.37,1.34-1.52,9.79-8.69,8.25-10.47-.66-.77-3.32,3.54-3.74,4-3.87,4.27-10.18,9.56-13.02,14.45-.38.65-1.01.98-.73,2.01Z"/>
    <path class="st1" d="M-21,260.6c2.38-3.25,4.54-9.85,1.76-13.24-1.48-1.81-3.47-2.53-5.79-1.76-3.9,1.28-2.95,4.58-3.55,7.93-.34,1.9-2.66,11.87-1.81,12.69,2.04,1.98,8.13-3.91,9.39-5.62ZM-27.5,262.34c1.02-2.98,1.41-6.19,1.94-9.29.25-1.47-.54-4.02,1.42-4.59,4.08-1.21,3.37,4.18,2.67,6.68-.77,2.71-3.35,6.2-6.03,7.2Z"/>
    <path class="st1" d="M-7.04,249.16c-.26-2.11-1.52-4.81-4.08-4.19-2.46.6-4.15,5.42-4.89,7.64-1.04,3.15-3.74,12.26,1.31,12.73,5.09.48,8.13-12.34,7.66-16.18ZM-11.73,249.89c.44-.59.87-1.18,1.73-1.02.17,3.11-.47,6.72-1.61,9.62-.58,1.46-1.55,3.72-3.39,3.86-.91-1.07,2.18-10.98,3.27-12.46Z"/>
    <path class="st1" d="M-10.05,276.63c-.59,2.62-7.38,16.77-5.95,18.17.14.13,1.61.03,2.02-.24,1.26-.81.49-6.04,4.48-4.76-.04.93-.08,4.53.55,4.94.42.29,1.86.11,2.23-.42.73-1.03.34-17.18-.85-17.93-.36-.23-2.08-.28-2.48.24ZM-11,286.8l1.01-2.98.49,2.99h-1.5Z"/>
    <path class="st1" d="M99.22,212.4c-1.55.94-2.07,4.3-3.1,5.87-.32.48.06.89-1.12.65v-7.24c0-.44-1.23-2.61-1.8-2.72-2.66-.53-.78,7.66-.7,9.22.08,1.58-.87,13.74,2.95,8.93l6.08-13.91c.4-1.75-.96-1.6-2.3-.79Z"/>
    <path class="st1" d="M114.87,216.55c-.6,2.77-4.85,12.69-.52,13.8.89.23,2.5-1.11,2.61-1.76.11-.65-2.85-2.49-.86-6.31.83-1.58,3.1-1.79,3.36-2.63.58-1.84-1.63-1.48-1.9-1.78-1.52-1.69,2.62-4.31,2.43-5.17-5.89-3.13-4.35.28-5.12,3.86Z"/>
    <path class="st1" d="M127.95,209.77c-.37-1.16-2.44-1.27-2.85.02-.22,4.83-2.86,10.8-3.11,15.39-.27,4.81,5.96,4.34,5.52.23h-2.5c-.59-.54,3.61-13.56,2.94-15.65Z"/>
    <path class="st1" d="M139.68,210.03c-.42-.08-7.03,1.67-7.17,2.17-.57,2,2.48,2.14,2.53,2.51.42,2.83-2.38,8.35-2.53,11-.11,2.03,1.99,2.38,2.91.86,1.33-2.2,2.13-12.46,2.65-13.07.22-.26,1.69-.12,2.31-.69.9-.83.53-2.54-.7-2.78Z"/>
    <path class="st1" d="M107.35,211.02c-.94.29-2.84,4.6-3.24,5.77-1,2.95-3.86,14.54,2.42,12.4,4.54-1.54,9.44-20.8.82-18.17ZM105.5,225.91c-.11-4.04.93-8.75,3.49-11.98,1.16,3.8-.64,9.23-3.49,11.98Z"/>
    <path class="st1" d="M35.86,154.61c-2.35.68-1.92,5.9,1.78,4.82,3.12-.91,2.26-5.99-1.78-4.82Z"/>
    <path class="st1" d="M47.22,164.03c2.48-.35,1.89-3.7.68-4.4-3.42-1.96-5.24,5.04-.68,4.4Z"/>
    <path class="st1" d="M63.35,126.22c.06-.2.11-.4.15-.64-.07.21-.12.42-.15.64Z"/>
    <path class="st1" d="M139.02,190.25c-.57-4.11-10.55-4.55-13.48-2.99-1.13.6-1.64,1.78-3.4,2.6-7.98,3.71-24.69,3.66-32.29-.99-5.72-3.49-7.07-6.53-10.85-11.38-.59-.76-1.05-1-1.5-1.5-.65-.71-1.28-1.58-2-2.33-.71-.76-1.51-1.4-2.5-1.67v-.72s4.49-4.52,4.49-4.52l3.75-5.23,19.26,17.97c.21-1.01-.22-1.34-.73-2.02-2.59-3.51-9.77-9.84-13.26-13.21-1.26-1.22-3.44-2.51-4.69-3.7-.43-.4-.44-.35-.32-1.04.11.01.22.01.34.01,2.81,0,6.32-2.8,4.58-5.66-.72-1.18-1.08-.62-1.92-.84.84-3.43,1.42-5.41.5-8.98l30.5-24.46-31.5,21.96c-1.96-3.91-3.59-5.64-7.27-7.96-.77-.48-1.67-.34-.73-1.52.49-.17.86-.49,1-1,.04-.15-.03-.34,0-.5,4.16-6.33-7.85-15.86-12.23-8.96-.7,1.11-.48,1.65-.77,2.47-.2.57-.36.74-.5,1.5-.09.62-.13,1.24-.12,1.87-.07-.42-.08-.83-.03-1.23-.25.92-.52,1.5-.3,3.06.17,1.2,1.47,3.42,1.37,3.96-.11.6-2.04,2.06-2.63,2.86-1.94,2.7-3.61,7.03-4.16,10.32-.26,1.58.17,3.56-.12,4.76-.12.49-2.58,1.15-2.98,3.63-.47,2.91.39,4.58,3.47,4.71,1.28,5.45.15,4,3.5,8.99.78,1.16,1.7,2.86,2.5,3.99l-2.71,1.04c-9.01,13.04-22.15,24.72-30.19,38.24-2.09,3.52-6.12,9.83-2.06,13.34,2.03,1.76,13.43,6.24,13.96,7.53-2.44.71-6.29,7.2-4.37,9.11,1.98,1.98,5.21-1.89,5.87-1.37-.66,3.71-1.48,7.71-1.5,11.48-.55,1.78-.83,4.35-1,6.24-2.93,33.45-8.08,66.83-13,100.08-1.4.01-9.43,7.88-10.76,9.47-.55.66-1.92,2.37-2.24,3.01-.66,1.31-1.03,4.58.82,4.92,2.57.46,9.15-7.62,10.91-9.44,2.61-2.71,6.72-3.62,4.77-8.46,5.92-28.42,6.75-59.96,12-88.85,4.11,1.16,9.08,1.75,14.07,1.75s10.29-.62,14.54-1.89c2.83-.85,5.01-3.14,7.89-3.85v22.96c-1.01,23.53.7,46.91.5,70.38-.01.59-.55,1.28-.41,2.13.37,2.09,4.64,4.85,6.18,6.33,2.07,1.98,3.1,3.11,5.49,5.03.7.56.82,2.12,2.28,1.74,1.71-.43,1.34-1.84,1.46-3.25.03-.33.63-.73.41-1.62-.63-2.54-4.85-4.74-6.66-6.37-.62-.57-.87-1.43-1.5-1.99-.97-.87-3.08-1.85-3.75-2.5-.32-.32-.59-.41-.5-1-.27-5.9-.28-11.83-.48-17.74-.56-16.36-.48-32.73-.52-49.15.47-.29.57-.85.57-1.44,0-.46-.06-.93-.06-1.3.1-9.39.07-18.82-.01-28.21v-.5c-.08-8.42-.63-17.05-1.02-25.68-.32-7.05-.23-14.19-.48-21.24.83.4,1.85.67,2.5,1,.95.49,3.28,3.63,4.49,1.75-1.05-1.53-2.54-1.97-3.98-2.74,0,0,0-.01-.01-.01-.89-.48-1.97-.95-3-1.49l-1.99-24.46c2.57,1.59,4.51,4.05,7.03,5.69,8.48,5.54,21.8,5.04,31.38,2.96,1.25-.27,5.53-2.05,5.84-2.02.48.03,1.9,2.21,3.71,2.64,3.49.83,11.27.75,10.55-4.5ZM84,154.53c.21.11.91-.12,1,0,.89,1.21-1.12,3.02-2.26,3.48-.27.11-.21-.5-.24-.49.25-1.17.32-2.4,1.5-2.99ZM57,158.02c-.1-.2-.87-.38-.98-.87-.34-1.49.14-4.09,1.98-4.12-.21,1.61.76,4.19-1,4.99ZM64.5,142.55c.86-2.06,1.7-3.24,2.5-5.49,6.35-.83,11.83.85,12.5,7.99-1.86.21-5.23,3.78-2.34,2.9,1.18-.35,1.95-1.68,3.34-1.4.22,1.45.06,11.06-2.24,10.47-.62-.15-1.02-2.67-2.76-1.99-.19.15,2.39,3.1,2.5,3.99.28,2.18-5.78,9.6-7.76,9.97-1.3.25-3.03-.24-4.24.02-8.11-6.09-4.84-18.5-1.5-26.46ZM30.99,222.67c-1.94-2.19,1.78-7.7,3.1-9.9,4.61-7.74,12.89-17.08,18.93-24.03.7-.81,1.37-2.39,2.48-2.26l-10.72,43.4-13.79-7.21ZM81,261.35s-.02.01-.03.01c0,.01,0,.01-.02,0-.1-.03-.2-.04-.3-.02h-.04s-.07,0-.11.01c-2.26,1.04-6.44,3.91-8.38,4.36-7.42,1.73-17.3,2.65-24.62.63-.46-1.02-.56-1.08-1,0-.22-.13-.42-.23-.62-.29-.5-.23-1.08-.53-1.38-.71.34-.72.66-1.46.91-2.21.24-.75.47-1.5.56-2.26.75-6.07,1.39-12.21,1.94-18.3.15-1.57-.13-3.14-.41-4.68.23-1.71.28-3.46.5-4.99,1.55-3.15,2.52-6.6,2.9-10.35,1.46-4.6,2.16-9.14,2.1-13.61,2.8-11.92,5.06-23.62,12-33.94.18-.12.32-.41.5-.5.78-.42,1.59-.93,2.5-1,.16-.02.34-.02.5,0l.5.5c4.48.88,5.85,2.79,7.5,6.99l-.55,1.16c.81,7.99,1.5,16.01,2.07,24.08-.4.55-.91,1.12-1.52,1.71-.36-2.2.61-4.47-1.73-6.03-1.9-1.27-2.79.9-3.51.88-.73-.03-2.07-1.77-4,.17-1.69,1.7,1.08,9.55,3.49,9.53,2.7-.03,4.31-4.17,5.25-4.55-1.65,1.66,3.28,2.69,3.5,2.5l1.5,50.91Z"/>
    <path class="st1" d="M66.51,165.26c2.31,1.06,3.47-.77,4.48-2.5-1.58-2.07-2.23,1.41-3.98,1.25-3.22-9.55-4.09-.4-.5,1.25Z"/>
    <path class="st1" d="M70.5,158.02c.16-.64,1.55-6.47-.49-4.99-.24.18-1.87,5.71.49,4.99Z"/>
    <path class="st1" d="M73.75,147.05c-.69.01-2.35,5.51.2,3.94.51-.31.95-3.95-.2-3.94Z"/>
    <path class="st1" d="M69.5,144.05c-.75-.7-2.78.6-2.99,1.75.97,2.03,3.48-1.29,2.99-1.75Z"/>
    <path class="st1" d="M69.5,151.04v-3c-.96-1.11-3.1,3.92,0,3Z"/>
    <path class="st1" d="M75.5,143.55c-.72-.14-2.99-.01-2.99.75,0,1.06,3.44,1.18,2.99-.75Z"/>
    <path class="st1" d="M96.24,139.02c-1.35-.17-9.21,2.64-5.73,4.28,1.72.81,2.41-.65,3.99-.75-.75,2.26-4.86,11.95-3.78,13.5.68.98,4.5-.24,4.73-.58,1.11-1.61-1.19-2.28-1.39-2.53-1.09-1.43,6.83-13.33,2.18-13.93Z"/>
    <path class="st1" d="M112.52,138.86c-.15.87,1.55,1.26,1.48,2.89-.05,1.2-1.16,3.93-1.42,5.63-.17,1.08-.96,6.79-.58,7.16.39.37,2.6-.07,2.55-1.2.93-3.42,1-9.89,2.56-12.92.47-.91,1.66-1.05,1.86-1.64.97-2.94-6.2-1.38-6.44.09Z"/>
    <path class="st1" d="M106.82,137.59c-1.84.53-1.12,4.75-1.37,6.16-.46,2.63-3.95,12.39,1.3,11.81,2.99-.33-.15-2.86-.21-3.73-.16-2.69,2.31-4.74,2.33-5.03.02-.36-.83-1.24-.84-2.43,0-1.43,1.45-4.73,1.41-4.99-.1-.67-1.76-2.04-2.63-1.79Z"/>
    <path class="st1" d="M102.25,139.06c-1.19-.37-1.39.37-1.74,1.25-.73,1.8-2.71,12.93-1.93,14.14.09.13,1.35.57,1.62.51,1.79-.4,1.15-4.75,1.37-6.12.25-1.56,2.67-9.16.69-9.79Z"/>
    <path class="st1" d="M37.09,146.88c7.51-12.93,7.93-25.98-2.91-36.95-2.3-2.32-3.28-4.15-6.68-5.57-29.92-12.47-78.28,8.68-73.95,45.37.91,7.7,8.21,13.46,15.11,15.87,23.25,8.15,55.13,4.14,68.43-18.72ZM-45.02,144.77c.94-25.98,26.38-40.55,49.92-42.5,6.89-.57,19.62,1.3,25.11,5.58,18.06,14.05,11.25,37.71-5.05,49.88-16.1,12.02-33.76,11.76-52.55,7.12-10.49-2.58-17.84-8.63-17.43-20.08Z"/>
    <path class="st1" d="M-4.44,136.37c.12-.55.14-1.87.93-1.8.58,2.44,1.19,11.8,3.84,12.37,2.99.65,2.01-6.72,2.23-8.57.19-1.54,2.03-8.54,1.9-8.98-.47-1.54-2.38-.64-2.97.42l-1.98,5.75c.21-4.15-5.12-11.93-6.46-4.19-.52,2.95-1.41,10.22-1.07,12.95.28,2.34,2.5,2.27,2.94.9.53-1.61.13-6.35.64-8.85Z"/>
    <path class="st1" d="M-17.5,129.32c-.01,4.15-.17,8.35-.51,12.47-.19,2.35-1.84,5.81-.22,7.73,1.11,1.32,2.71,1.11,3.7-.28.2-.84-1.2-1.77-1.33-2.52-.06-.34.73-6.17.87-6.91.31-1.64,2.4-1.64,2.43-3.07.03-1.45-2-.9-2.38-1.99-.25-.7.01-3.22.55-3.58.49-.33,1.66.08,2.44-.8,2.44-2.75-5.15-3.38-5.55-1.05Z"/>
    <path class="st1" d="M23,128.07c.6.74-1.32,11.42-1.03,13.75.19,1.54,2.48,1.47,2.93-.12l1.08-13.8c.12-.55,5.27-.91,2.91-3.2-1-.96-8.01.45-8.36,1.69-.72,2.56,2.35,1.54,2.47,1.68Z"/>
    <path class="st1" d="M-26.03,130.85c-.5-.37-2.75-1.59-3.22-1.59-.6-.01-1.46.54-1.67,1.15.4,5.96-3.16,13.89-3.01,19.4.16,5.56,6.37-1,7.65-2.8,3.27-4.58,5.49-12.19.25-16.16ZM-29.51,146.54l-.98-.24c1.05-3.75,1.6-7.6,2-11.48.06-.53-.33-1.68.73-1.25,4.4,1.78.05,10.3-1.75,12.97Z"/>
    <path class="st1" d="M9.53,148.32c2.22-1.8.5-3.47,1.48-5.77.88,1.1,4,3.31,4.44.68.19-1.16-3.19-3.31-2.87-5.31.3-1.93,5.95-5.73,5.42-7.59-.88-3.06-5.22,2.29-6,3.23-.25-1.71.47-4.47-.25-5.98-.53-1.1-2.24-1.53-2.67-.17-.56,1.79.11,6.12-.09,8.4-.29,3.42-2.02,8.15-2.03,10.99-.01,2.15.75,3,2.57,1.52Z"/>
    <path class="st1" d="M223.83,118.27c-12.12-9.75-42.49-7.47-56.44-2.04-11.47,4.47-26.03,13.79-32.7,24.26-4.23,6.63-4.24,17.47,2.84,22.24,1.74,1.17,3.04,1.11,4.78,1.73.54.2,1.39.23.69,1.04-.2.23-4.41,2.84-5.05,3.2-1.89,1.05-5.27,2.52-7.33,3.17-1.65.51-4.18-.33-3.62,2.13,8.05,1.14,16.02-1.31,23.18-4.94,1.08.18,3.33,3.86,4.34,4.67,2.67,2.14,14.94,7.34,18.45,8.03,19.81,3.9,53.58-10.94,59.79-31.21,4.14-13.52,2.1-23.41-8.93-32.28ZM231.25,149.54c-6.06,20.21-36.3,32.67-56.02,30.96-4.23-.36-17.45-6.12-20.5-8.98-1.04-.97-2.88-4.15-4.08-4.46-.89-.22-12.34,6.67-15.15,4.94l5.45-3.29c1.06-1.21,5.53-3.42,5.56-4.94-6.67-.84-12.11-3.8-12.96-11.04-1.83-15.64,20.57-29.09,32.96-34.38,13.87-5.93,44.06-8.7,56.23,1.25,10.59,8.67,12.44,16.81,8.51,29.94Z"/>
    <path class="st1" d="M193.02,143.78c-.8-.54-4.92.26-5.73.8-1.74,1.17.01,2.91-.34,3.39-.28.39-3.16,2.03-3.92,1.54-.49-3.93.35-11.31,3.94-13.73,1.43-.97,3.25-.47,3.06-2.46-.44-4.54-7.11,2.17-8.13,3.88-1.07,1.8-2.58,9.53-2.39,11.54.46,5.19,6.79,4.57,9.48,1.3.52,1.85-.97,4.55-.43,6.16.31.93,2.02,1.23,2.49.54,1.2-1.76,1.08-7.63,1.47-9.93.16-.93,1.79-2.17.5-3.03Z"/>
    <path class="st1" d="M162.92,135.42c-.17-.56-.71-1.11-1.28-1.27-1.41-.38-9.83,2.54-10.09,3.22-1.72,4.53,7.6-.16,7.95.19-.8,2.64-1.67,5.45-2.76,7.98-.8,1.86-5,8.62-4.18,9.93,1.58,2.5,14.65-1.84,4.44-2.94.98-3.39,6.76-14.21,5.92-17.11Z"/>
    <path class="st1" d="M210.19,130.18c-.45-.08-8.43,1.45-9.07,1.72-1.08.46-1.1,2.3-.56,2.61.62.36,2.37-.42,2.86.79-1.19,5.03-3.12,10.46-3.86,15.54-.37,2.52-1.15,9.84,2.43,4.92l4.6-21.61c2.43.55,7.49-3.22,3.6-3.97Z"/>
    <path class="st1" d="M169,134.81c-1.33.76-1.32,7.17-1.54,8.95-.24,1.96-.3,3.21-.46,5.03-.19,2.13-1.72,8.18-.37,9.61.77.81,4.11,1.57,4.4.32.49-2.14-1.76-2.19-1.95-2.98-.1-.4.67-7.87.96-8.16.14-.14,1.32.02,1.93-.3,2.69-1.4,1.17-3.94-1.47-2.73-.3-.35.27-6.38.73-7.01.46-.63,3.53-.53,3.24-2.17-.31-1.73-4.46-1.14-5.47-.56Z"/>
  </g>
  <rect class="st1" x="271.42" y="232.9" width="37.97" height="77.73"/>
</svg>