<svg width="32" height="37" fill="none" xmlns="http://www.w3.org/2000/svg">
    <path d="M0 9.25v18.5L15.6 37l15.6-9.25V9.25L15.6 0 0 9.25Z" fill="#FBC5B4"/>
    <path d="M18.33 22.124c0 .781-.657 1.439-1.438 1.439h-2.056c-.78 0-1.438-.658-1.438-1.439v-1.027H6v3.288c0 .698.535 1.233 1.233 1.233h17.262c.658 0 1.233-.535 1.233-1.233v-3.288H18.33v1.027ZM24.495 12.466h-5.343v-1.233c0-.699-.576-1.233-1.233-1.233h-4.11c-.329 0-.658.123-.863.37-.247.247-.37.534-.37.863v1.233H7.233C6.534 12.466 6 13 6 13.7v6.576h7.398v-1.027c0-.781.658-1.439 1.438-1.439h2.056c.78 0 1.438.658 1.438 1.439v1.027h7.398V13.7c0-.699-.576-1.233-1.233-1.233Zm-11.097-1.233c0-.123.041-.205.123-.288a.374.374 0 0 1 .288-.123h4.11c.205 0 .41.206.41.411v1.233h-4.931v-1.233Z" fill="#090940"/>
    <path d="M16.892 22.74a.632.632 0 0 0 .616-.616v-2.877a.632.632 0 0 0-.616-.616h-2.056a.632.632 0 0 0-.616.616v2.878c0 .328.288.616.616.616h2.056Z" fill="#090940"/>
</svg>