<?xml version="1.0" encoding="UTF-8"?>
<svg id="Layer_3" xmlns="http://www.w3.org/2000/svg" version="1.1" viewBox="0 0 85.43 221.19">
  <!-- Generator: Adobe Illustrator 29.4.0, SVG Export Plug-In . SVG Version: 2.1.0 Build 152)  -->
  <path d="M28.14,76.67l18.51-18.17c10.72-9.02,23.59-20.08,24.02-21.55,1.04-3.65.32-6.83-2.15-9.46-.9-.96-1.99-1.41-3.18-1.33-2.84.21-5.29,3.47-5.75,4.13-5.12,5.11-13.07,12.92-14.13,13.63-1.68,1.13-10.17,8.39-15.08,12.61-3.68,3.16-17.87,13.66-18.01,13.77l-3.81,4.87-4.5,7.49-4.04,5.33v4.21l20.11-5.77,8.03-9.76ZM12.18,73.73l1.47-1.91c1.44-1.07,14.41-10.68,18.01-13.78,8.18-7.04,13.75-11.7,14.89-12.47,1.58-1.06,13.18-12.62,14.49-13.94l.12-.14c.62-.89,2.59-3.22,4.31-3.35.58-.05,1.08.18,1.57.7,2.86,3.06,2.04,6.28,1.71,7.46-1.1,1.64-14.89,13.5-23.46,20.71l-18.6,18.26-4.44,5.4-6.01-.28v-5.31l-4.4,2.11.33-3.46ZM11.43,86.84l-6.39-2.2.62-.82,4.21-7-.36,3.7,4.73-2.26v4.05l6.42.29-1.71,2.08-7.53,2.16Z"/>
  <path d="M67.68,197.32c-1.41-2.14-13.84-20.96-15.23-22.35-.93-.93-6.89-10.21-10.45-15.87l-15.55-22.5-16.15-15.39-1.53,1.16-4.03-4.03c-.39-.39-1.02-.39-1.41,0s-.39,1.02,0,1.41l3.83,3.83-1.54,1.17.64.8c2.8,3.5,5.81,7.92,5.82,8.9.02,2.02,1.19,8.64,1.24,8.92l.04.2.11.17c.17.25,4.13,6.26,5.22,7.51.91,1.04,12.57,16.6,14.07,19.3l.14.25c12.52,22.54,14.62,25.82,15.46,26.3-.02,0-.03-.02-.03-.02.63.4,3.99,4.18,6.88,7.6l.12.12c.21.17,4.05,3.38,7.59,3.38,1.02,0,2.01-.26,2.88-.94,3.81-2.94,2.09-9.39,2.01-9.66l-.13-.29ZM15.25,142.84c-.35-2.01-1.16-6.9-1.17-8.39-.01-1.89-3.74-6.91-5.62-9.32l1.7-1.29,14.21,13.52c-1.99-.01-3.91.59-4.27.71-1.67.72-3.59,3.37-4.67,5.04-.06-.09-.12-.19-.18-.27ZM49.3,195.38c-.78-.99-5-8.15-14.66-25.53l-.14-.25c-1.61-2.89-13.36-18.56-14.31-19.65-.57-.65-2.21-3.04-3.54-5.03,1.14-1.86,3.04-4.51,4.16-4.99.98-.32,3.82-.97,5.35-.24l14.18,20.51c.95,1.51,9.31,14.78,10.71,16.18.89.88,8.72,12.58,14.05,20.64-1.03.08-2.4.15-3.67.15-2.33,0-4.5,3.16-5.63,5.12-4.29-5.03-5.8-6.49-6.48-6.91ZM64.58,205.69c-1.94,1.5-5.51-.55-7.33-1.9,1.13-2.07,2.99-4.61,4.17-4.61,1.74,0,3.58-.13,4.64-.22.28,1.59.62,5.11-1.48,6.74Z"/>
  <path d="M75.52,170.73c-2.82,1.9-5.99,3.14-9.35,3.66-.53.08-.83.75-.7,1.23.16.57.69.78,1.23.7,3.51-.54,6.88-1.87,9.82-3.86.45-.3.64-.88.36-1.37-.26-.44-.92-.66-1.37-.36Z"/>
  <path d="M76.99,183.36c0-.54-.46-1-1-1h-6.75c-.54,0-1,.46-1,1s.46,1,1,1h6.75c.54,0,1-.46,1-1Z"/>
  <path d="M84.43,194.46h-6.47c-.52,0-1.02.46-1,1,.02.54.44,1,1,1h6.47c.52,0,1.02-.46,1-1-.02-.54-.44-1-1-1Z"/>
  <path d="M74.79,201.66c-.45-.27-1.12-.11-1.37.36-.26.49-.12,1.08.36,1.37.24.15.49.31.72.47.13.09.26.18.39.27.06.04.12.08.17.13.01,0,.07.05.11.08.04.03.09.07.1.08.06.04.11.09.17.14.11.09.22.18.33.28.23.2.45.4.67.61.41.4.81.82,1.18,1.26.09.11.18.22.27.33.01.02.19.24.06.07.04.06.09.11.13.17.18.24.35.49.52.74.29.43.9.66,1.37.36.43-.28.67-.9.36-1.37-1.44-2.16-3.32-3.98-5.53-5.34Z"/>
  <path d="M44.31,207.28v12.95c0,1.29,2,1.29,2,0v-12.95c0-1.29-2-1.29-2,0Z"/>
  <path d="M29.42,192.51c-.38-.35-1.04-.42-1.41,0-1.6,1.78-3.2,3.56-4.8,5.33-.35.39-.41,1.04,0,1.41.38.35,1.04.42,1.41,0,1.6-1.78,3.2-3.56,4.8-5.33.35-.39.41-1.04,0-1.41Z"/>
  <path d="M77.67,61.35h-11.82c-1.29,0-1.29,2,0,2h11.82c1.29,0,1.29-2,0-2Z"/>
  <path d="M79.64,46.69c-3,.12-6.01.09-9.01-.11-.54-.04-1,.48-1,1,0,.57.46.96,1,1,3,.2,6.01.23,9.01.11,1.28-.05,1.29-2.05,0-2Z"/>
  <path d="M74.86,21.15c2.68-.3,5.32-.84,7.89-1.66.51-.16.85-.69.7-1.23-.14-.51-.71-.86-1.23-.7-2.39.76-4.86,1.31-7.36,1.59-.54.06-1,.42-1,1,0,.49.46,1.06,1,1Z"/>
  <path d="M68.13,14.07c.56.15,1.04-.19,1.23-.7.93-2.53,2.38-4.91,4.21-6.9.36-.4.39-1.02,0-1.41-.37-.37-1.05-.4-1.41,0-2.07,2.27-3.66,4.9-4.72,7.79-.19.51.21,1.1.7,1.23Z"/>
  <path d="M60.12,11.49c.55.15,1.05-.19,1.23-.7,1.01-2.95,2.33-5.78,3.94-8.46.66-1.11-1.07-2.11-1.73-1.01-1.69,2.82-3.07,5.82-4.14,8.93-.18.51.2,1.09.7,1.23Z"/>
  <path d="M45.97,12.26c-.06,1.29,1.94,1.28,2,0,.17-3.75.08-7.51-.25-11.26-.05-.54-.43-1-1-1-.5,0-1.05.46-1,1,.33,3.74.41,7.5.25,11.26Z"/>
  <path d="M35.05,198.76c-1.31,3.81-3.06,7.45-5.2,10.87-.68,1.09,1.05,2.1,1.73,1.01,2.23-3.56,4.03-7.38,5.4-11.35.42-1.22-1.51-1.74-1.93-.53Z"/>
</svg>