<svg width="44" height="42" viewBox="0 0 44 42" fill="none" xmlns="http://www.w3.org/2000/svg">
    <g clip-path="url(#a)">
        <path d="M14.84 29.36v8.22l7.185 4.11 7.184-4.11v-8.22l-7.184-4.116-7.184 4.115ZM29.363 4.426v8.22l7.184 4.11 7.178-4.11v-8.22L36.547.316l-7.184 4.11ZM14.84 4.426v8.22l7.185 4.11 7.184-4.11v-8.22L22.025.316l-7.184 4.11ZM.275 4.426v8.22l7.184 4.11 7.184-4.11v-8.22L7.459.316.275 4.426ZM22.113 16.882v8.226l7.184 4.11 7.184-4.11v-8.226l-7.184-4.11-7.184 4.11ZM7.613 16.882v8.226l7.184 4.11 7.184-4.11v-8.226l-7.184-4.11-7.184 4.11Z" fill="#FEB51E" stroke="#fff" stroke-miterlimit="10"/>
        <path d="m10.062 5.912-1.79 4.91H6.64l-1.79-4.91h1.78l.867 2.902.863-2.902h1.702ZM16.911 18.727v4.666h-1.247v-1.819h-1.647v1.819H12.77v-4.666h1.247v1.748h1.648v-1.748h1.246ZM31.422 21.476v1.062l-.796.79h-3.323v-4.666h3.186l.796.79v1.044l-.423.42.56.56Zm-2.872-.969h1.285l.203-.201v-.425l-.154-.152H28.55v.778Zm1.625 1.6v-.375l-.258-.256h-1.373v.784h1.472l.154-.152h.005ZM24.31 32.06v2.814l-.934.925H20.98l-.934-.925v-2.815l.934-.925h2.395l.934.925Zm-1.247 2.351v-1.894l-.291-.289H21.58l-.291.289v1.894l.29.289h1.193l.29-.289ZM37.26 8.079v1.873l.374.37h.928v1.334h-1.927l-1.06-1.051V8.073h-1.011V6.74h1.11l.236-1.753h1.345V6.74h1.307v1.333h-1.307l.006.006Z" fill="#41014A"/>
    </g>
    <defs>
        <clipPath id="a">
            <path fill="#fff" d="M0 0h44v42H0z"/>
        </clipPath>
    </defs>
</svg>
