<svg width="355" height="77" viewBox="0 0 355 77" fill="none" xmlns="http://www.w3.org/2000/svg">
    <path d="m112.9 8.6-5.04 14.37-5.04-14.37h-4.83l7.65 20.4h4.23l7.65-20.4h-4.62Zm7.794 2.82h4.26V7.49h-4.26v3.93Zm0 17.58h4.26V14.09h-4.26V29Zm19.142-8.76-6.33-.42-.51-.51v-1.32l.66-.66h3.9l1.65 1.65 2.61-2.61-2.28-2.28h-8.28l-2.52 2.52v3.9l2.25 2.25 6.33.42.51.51v1.41l-.66.66h-4.59l-1.77-1.77-2.61 2.61 2.4 2.4h8.97l2.52-2.52v-3.99l-2.25-2.25Zm14.821-6.15v9.57l-1.86 1.86h-2.31l-.87-.87V14.09h-4.26V26.3l2.7 2.7h4.47l2.52-2.52.09 2.52h3.78V14.09h-4.26Zm18.835 0h-8.34l-2.49 2.49 2.61 2.61 1.86-1.86h3.84l.96.96v1.62l-7.29.48-2.25 2.25v3.84l2.52 2.52h4.89l2.52-2.52.09 2.52h3.78V16.79l-2.7-2.7Zm-6.12 11.67-.72-.72v-1.41l.66-.66 4.62-.3v.99l-2.1 2.1h-2.46Zm17.92-.24-.93-.93V7.4h-4.26v18.57l3.03 3.03h3.81v-3.48h-1.65Zm28.98-16.92h-17.4v4.02h6.45V29h4.5V12.62h6.45V8.6Zm14.255 5.49h-4.08l-2.52 2.52V7.4h-4.26V29h4.26v-9.18l2.25-2.25h1.92l.87.87V29h4.26V16.79l-2.7-2.7Zm6.864-2.67h4.26V7.49h-4.26v3.93Zm0 17.58h4.26V14.09h-4.26V29Zm19.503-14.91h-4.47l-2.52 2.52-.09-2.52h-3.78V29h4.26v-9.57l1.86-1.86h2.31l.87.87V29h4.26V16.79l-2.7-2.7ZM276.758 29l-6.42-7.74 5.97-7.17h-5.04l-5.25 6.48V7.4h-4.26V29h4.26v-6.66l5.37 6.66h5.37Zm2.491-17.58h4.26V7.49h-4.26v3.93Zm0 17.58h4.26V14.09h-4.26V29Zm19.502-14.91h-4.47l-2.52 2.52-.09-2.52h-3.78V29h4.26v-9.57l1.86-1.86h2.31l.87.87V29h4.26V16.79l-2.7-2.7Zm20.065 0h-9.66l-4.2 4.2v7.41l3.18 3.18h3.9l2.52-2.52v4.05l-1.65 1.65h-3.33l-1.56-1.56-2.61 2.61 2.19 2.19h7.62l3.6-3.6V14.09Zm-6.51 11.31h-1.74l-1.35-1.35v-4.47l2.01-2.01h3.33v5.61l-2.25 2.22ZM99.19 48.42h4.26v-3.93h-4.26v3.93Zm0 17.58h4.26V51.09h-4.26V66Zm19.503-14.91h-4.47l-2.52 2.52-.09-2.52h-3.78V66h4.26v-9.57l1.86-1.86h2.31l.87.87V66h4.26V53.79l-2.7-2.7Zm25.576 0h-4.08l-2.52 2.52V44.4h-4.26V66h4.26v-9.18l2.25-2.25h1.92l.87.87V66h4.26V53.79l-2.7-2.7Zm17.184 0h-7.68l-3.18 3.18v8.55l3.18 3.18h8.13l2.73-2.73-2.55-2.55-2.04 2.04h-4.11l-1.08-1.08v-1.8h9.78v-5.61l-3.18-3.18Zm-6.6 5.91v-1.59l1.08-1.08h3.36l1.08 1.08V57h-5.52Zm23.947-2.43v-3.48h-4.23V45.6h-3.36l-.66 5.49h-3.51v3.48h3.27v8.34L173.4 66h5.4v-3.48h-2.97l-1.26-1.26v-6.69h4.23Zm24.676-8.97v8.04h-8.4V45.6h-4.5V66h4.5v-8.34h8.4V66h4.5V45.6h-4.5Zm24.449 9.93 1.95-1.95v-4.59l-3.39-3.39h-13.35V66h13.95l3.39-3.39v-4.53l-2.55-2.55Zm-10.29-5.97h6.72l1.02 1.02v2.13l-1.14 1.14h-6.6v-4.29Zm7.32 12.48h-7.32v-4.35h6.87l1.47 1.47v1.86l-1.02 1.02Zm23.211-16.44h-9.96l-4.02 4.02v12.36l4.02 4.02h9.96l4.02-4.02V49.62l-4.02-4.02Zm-2.13 16.38h-5.7l-1.65-1.65v-9.06l1.65-1.65h5.7l1.65 1.65v9.06l-1.65 1.65Z" fill="#090940"/>
    <path d="M23.71 49.059v12.994l11.2 6.496 11.201-6.497V49.06l-11.2-6.505-11.201 6.505ZM46.35 9.649v12.993l11.201 6.497 11.193-6.497V9.65L57.55 3.152l-11.2 6.497ZM23.71 9.649v12.993l11.2 6.497 11.201-6.497V9.65l-11.2-6.497L23.71 9.649ZM1 9.649v12.993l11.2 6.497 11.201-6.497V9.649l-11.2-6.497L1 9.649ZM35.047 29.337v13.002l11.2 6.496L57.45 42.34V29.337L46.248 22.84l-11.2 6.497ZM12.44 29.337v13.002l11.201 6.496 11.201-6.496V29.337l-11.2-6.497-11.201 6.497Z" fill="#FEB51E" stroke="#fff" stroke-miterlimit="10"/>
    <path d="m16.26 11.998-2.792 7.761h-2.543l-2.792-7.761h2.775l1.353 4.586 1.344-4.586h2.655ZM26.938 32.254v7.374h-1.944v-2.874h-2.569v2.874h-1.944v-7.374h1.944v2.762h2.57v-2.762h1.943ZM49.562 36.599v1.678l-1.242 1.248h-5.18V32.15h4.966l1.242 1.248v1.652l-.66.663.874.886Zm-4.479-1.532h2.004l.317-.318v-.671l-.24-.241h-2.08v1.23Zm2.535 2.53v-.594l-.402-.404h-2.141v1.239h2.295l.24-.241h.008ZM38.472 53.327v4.449l-1.455 1.463h-3.734l-1.456-1.463v-4.449l1.456-1.463h3.734l1.455 1.463Zm-1.943 3.717V54.05l-.454-.456h-1.858l-.454.456v2.994l.454.457h1.858l.454-.457ZM58.665 15.422v2.96l.582.586h1.447v2.108h-3.006l-1.652-1.66v-4.002H54.46v-2.108h1.73l.368-2.771h2.098v2.77h2.038v2.109h-2.038l.009.008Z" fill="#41014A"/>
</svg>