<svg width="32" height="24" fill="none" xmlns="http://www.w3.org/2000/svg">
    <path d="M31.681 5.16s-.312-2.344-1.275-3.374C29.188.432 27.825.425 27.2.346 22.725 0 16.006 0 16.006 0h-.012S9.275 0 4.8.345c-.625.08-1.987.087-3.206 1.441C.63 2.816.325 5.16.325 5.16S0 7.916 0 10.665v2.576c0 2.75.319 5.506.319 5.506S.63 21.09 1.587 22.12c1.22 1.355 2.82 1.308 3.532 1.454 2.562.26 10.881.339 10.881.339s6.725-.013 11.2-.352c.625-.08 1.988-.086 3.206-1.441.963-1.03 1.275-3.373 1.275-3.373S32 15.997 32 13.24v-2.576c0-2.75-.319-5.505-.319-5.505ZM12.694 16.37V6.812l8.643 4.795-8.643 4.761Z" fill="#000"/>
</svg>