<svg width="402" height="377" viewBox="0 0 402 377" fill="none" xmlns="http://www.w3.org/2000/svg">
<path d="M177.428 203.877C190.594 171.326 97.9186 100.306 5 4.55188C108.832 91.6402 194.583 169.701 225.729 158.588C240.642 153.803 242.145 120.627 243.474 74.4492C250.326 129.606 253.185 155.98 265.709 158.31C289.017 162.646 366.032 103.015 396.393 76.7091C342.657 140.516 304.004 171.951 310.055 191.467C316.106 210.983 331.751 219.987 397.482 223.463C331.314 228.882 305.774 235.026 305.298 244.376C301.198 263.505 352.603 318.066 379.312 344.62C313.397 290.345 282.303 279.541 271.878 284.329C256.925 291.197 251.317 309.006 248.232 374.145C241.324 309.715 228.147 288.328 217.835 286.421C197.211 282.606 121.792 350.223 97.587 372.542C133.396 332.772 185.676 277.184 180.449 260.807C173.376 238.644 138.473 228.831 96.2998 227.3C137.73 225.6 173.995 212.366 177.428 203.877Z" fill="#F6BA20" stroke="#F6BA20" stroke-width="9" stroke-linejoin="round"/>
</svg>
